<svg id="visual" viewBox="0 0 900 450" width="900" height="450" xmlns="http://www.w3.org/2000/svg" xmlns:xlink="http://www.w3.org/1999/xlink" version="1.1"><path d="M0 46L11.5 58C23 70 46 94 69 100.8C92 107.7 115 97.3 138.2 94.3C161.3 91.3 184.7 95.7 207.8 96.3C231 97 254 94 277 97C300 100 323 109 346 107.5C369 106 392 94 415.2 87.3C438.3 80.7 461.7 79.3 484.8 77.2C508 75 531 72 554 86.2C577 100.3 600 131.7 623 137.7C646 143.7 669 124.3 692.2 121.3C715.3 118.3 738.7 131.7 761.8 118.8C785 106 808 67 831 49.8C854 32.7 877 37.3 888.5 39.7L900 42L900 0L888.5 0C877 0 854 0 831 0C808 0 785 0 761.8 0C738.7 0 715.3 0 692.2 0C669 0 646 0 623 0C600 0 577 0 554 0C531 0 508 0 484.8 0C461.7 0 438.3 0 415.2 0C392 0 369 0 346 0C323 0 300 0 277 0C254 0 231 0 207.8 0C184.7 0 161.3 0 138.2 0C115 0 92 0 69 0C46 0 23 0 11.5 0L0 0Z" fill="#5592f2"></path><path d="M0 118L11.5 145.8C23 173.7 46 229.3 69 245.8C92 262.3 115 239.7 138.2 223.8C161.3 208 184.7 199 207.8 218.5C231 238 254 286 277 297.3C300 308.7 323 283.3 346 255.7C369 228 392 198 415.2 187.5C438.3 177 461.7 186 484.8 178.5C508 171 531 147 554 171C577 195 600 267 623 273.7C646 280.3 669 221.7 692.2 214.2C715.3 206.7 738.7 250.3 761.8 261.7C785 273 808 252 831 225.7C854 199.3 877 167.7 888.5 151.8L900 136L900 40L888.5 37.7C877 35.3 854 30.7 831 47.8C808 65 785 104 761.8 116.8C738.7 129.7 715.3 116.3 692.2 119.3C669 122.3 646 141.7 623 135.7C600 129.7 577 98.3 554 84.2C531 70 508 73 484.8 75.2C461.7 77.3 438.3 78.7 415.2 85.3C392 92 369 104 346 105.5C323 107 300 98 277 95C254 92 231 95 207.8 94.3C184.7 93.7 161.3 89.3 138.2 92.3C115 95.3 92 105.7 69 98.8C46 92 23 68 11.5 56L0 44Z" fill="#367dec"></path><path d="M0 366L11.5 361.5C23 357 46 348 69 336.7C92 325.3 115 311.7 138.2 310.8C161.3 310 184.7 322 207.8 337.8C231 353.7 254 373.3 277 372.7C300 372 323 351 346 340.5C369 330 392 330 415.2 330C438.3 330 461.7 330 484.8 336C508 342 531 354 554 365.2C577 376.3 600 386.7 623 379.8C646 373 669 349 692.2 346.8C715.3 344.7 738.7 364.3 761.8 359.2C785 354 808 324 831 317.2C854 310.3 877 326.7 888.5 334.8L900 343L900 134L888.5 149.8C877 165.7 854 197.3 831 223.7C808 250 785 271 761.8 259.7C738.7 248.3 715.3 204.7 692.2 212.2C669 219.7 646 278.3 623 271.7C600 265 577 193 554 169C531 145 508 169 484.8 176.5C461.7 184 438.3 175 415.2 185.5C392 196 369 226 346 253.7C323 281.3 300 306.7 277 295.3C254 284 231 236 207.8 216.5C184.7 197 161.3 206 138.2 221.8C115 237.7 92 260.3 69 243.8C46 227.3 23 171.7 11.5 143.8L0 116Z" fill="#0068e5"></path><path d="M0 438L11.5 436.5C23 435 46 432 69 426.7C92 421.3 115 413.7 138.2 415.2C161.3 416.7 184.7 427.3 207.8 431.8C231 436.3 254 434.7 277 427.2C300 419.7 323 406.3 346 403.3C369 400.3 392 407.7 415.2 405.3C438.3 403 461.7 391 484.8 388.8C508 386.7 531 394.3 554 404.2C577 414 600 426 623 419.2C646 412.3 669 386.7 692.2 386.7C715.3 386.7 738.7 412.3 761.8 413.2C785 414 808 390 831 389.2C854 388.3 877 410.7 888.5 421.8L900 433L900 341L888.5 332.8C877 324.7 854 308.3 831 315.2C808 322 785 352 761.8 357.2C738.7 362.3 715.3 342.7 692.2 344.8C669 347 646 371 623 377.8C600 384.7 577 374.3 554 363.2C531 352 508 340 484.8 334C461.7 328 438.3 328 415.2 328C392 328 369 328 346 338.5C323 349 300 370 277 370.7C254 371.3 231 351.7 207.8 335.8C184.7 320 161.3 308 138.2 308.8C115 309.7 92 323.3 69 334.7C46 346 23 355 11.5 359.5L0 364Z" fill="#005ac6"></path><path d="M0 451L11.5 451C23 451 46 451 69 451C92 451 115 451 138.2 451C161.3 451 184.7 451 207.8 451C231 451 254 451 277 451C300 451 323 451 346 451C369 451 392 451 415.2 451C438.3 451 461.7 451 484.8 451C508 451 531 451 554 451C577 451 600 451 623 451C646 451 669 451 692.2 451C715.3 451 738.7 451 761.8 451C785 451 808 451 831 451C854 451 877 451 888.5 451L900 451L900 431L888.5 419.8C877 408.7 854 386.3 831 387.2C808 388 785 412 761.8 411.2C738.7 410.3 715.3 384.7 692.2 384.7C669 384.7 646 410.3 623 417.2C600 424 577 412 554 402.2C531 392.3 508 384.7 484.8 386.8C461.7 389 438.3 401 415.2 403.3C392 405.7 369 398.3 346 401.3C323 404.3 300 417.7 277 425.2C254 432.7 231 434.3 207.8 429.8C184.7 425.3 161.3 414.7 138.2 413.2C115 411.7 92 419.3 69 424.7C46 430 23 433 11.5 434.5L0 436Z" fill="#004da8"></path></svg>